<mxfile host="app.diagrams.net" modified="2020-07-16T02:52:18.611Z" agent="5.0 (Macintosh; Intel Mac OS X 10_15_5) AppleWebKit/537.36 (KHTML, like Gecko) Chrome/83.0.4103.116 Safari/537.36" etag="r-8yNBrD3S9uk5eZf_Rb" version="13.4.3" type="github">
  <diagram id="D_IJrdBWuOMCP7FshWZn" name="第 1 页">
    <mxGraphModel dx="1810" dy="1701" grid="1" gridSize="10" guides="1" tooltips="1" connect="1" arrows="1" fold="1" page="1" pageScale="1" pageWidth="827" pageHeight="1169" math="0" shadow="0">
      <root>
        <mxCell id="0" />
        <mxCell id="1" parent="0" />
        <mxCell id="ZjVOlIGF_ecNaLtHyKa2-1" value="veth_mi_tx" style="rounded=1;whiteSpace=wrap;html=1;fillColor=#d5e8d4;strokeColor=#82b366;" parent="1" vertex="1">
          <mxGeometry x="330" y="270" width="120" height="60" as="geometry" />
        </mxCell>
        <mxCell id="ZjVOlIGF_ecNaLtHyKa2-3" value="veth_rd_tx" style="rounded=1;whiteSpace=wrap;html=1;fillColor=#fff2cc;strokeColor=#d6b656;shadow=1;" parent="1" vertex="1">
          <mxGeometry x="330" y="110" width="120" height="60" as="geometry" />
        </mxCell>
        <mxCell id="ZjVOlIGF_ecNaLtHyKa2-6" value="" style="endArrow=classic;html=1;entryX=0;entryY=0.5;entryDx=0;entryDy=0;fillColor=#fff2cc;strokeColor=#d6b656;exitX=0.5;exitY=0;exitDx=0;exitDy=0;" parent="1" target="ZjVOlIGF_ecNaLtHyKa2-3" edge="1">
          <mxGeometry width="50" height="50" relative="1" as="geometry">
            <mxPoint x="220" y="195" as="sourcePoint" />
            <mxPoint x="430" y="150" as="targetPoint" />
            <Array as="points">
              <mxPoint x="220" y="140" />
            </Array>
          </mxGeometry>
        </mxCell>
        <mxCell id="ZjVOlIGF_ecNaLtHyKa2-7" value="REDIRECT" style="edgeLabel;html=1;align=center;verticalAlign=middle;resizable=0;points=[];" parent="ZjVOlIGF_ecNaLtHyKa2-6" vertex="1" connectable="0">
          <mxGeometry x="-0.1833" y="-2" relative="1" as="geometry">
            <mxPoint x="29" y="-2" as="offset" />
          </mxGeometry>
        </mxCell>
        <mxCell id="ZjVOlIGF_ecNaLtHyKa2-8" value="" style="endArrow=classic;html=1;exitX=1;exitY=0.5;exitDx=0;exitDy=0;" parent="1" source="ZjVOlIGF_ecNaLtHyKa2-19" edge="1">
          <mxGeometry width="50" height="50" relative="1" as="geometry">
            <mxPoint x="330" y="190" as="sourcePoint" />
            <mxPoint x="730" y="210" as="targetPoint" />
          </mxGeometry>
        </mxCell>
        <mxCell id="ZjVOlIGF_ecNaLtHyKa2-9" value="" style="endArrow=classic;html=1;exitX=0.5;exitY=1;exitDx=0;exitDy=0;entryX=0;entryY=0.5;entryDx=0;entryDy=0;strokeColor=#7EA6E0;" parent="1" target="ZjVOlIGF_ecNaLtHyKa2-1" edge="1">
          <mxGeometry width="50" height="50" relative="1" as="geometry">
            <mxPoint x="220" y="225" as="sourcePoint" />
            <mxPoint x="430" y="150" as="targetPoint" />
            <Array as="points">
              <mxPoint x="220" y="300" />
            </Array>
          </mxGeometry>
        </mxCell>
        <mxCell id="ZjVOlIGF_ecNaLtHyKa2-25" value="MIRROR" style="edgeLabel;html=1;align=center;verticalAlign=middle;resizable=0;points=[];" parent="ZjVOlIGF_ecNaLtHyKa2-9" vertex="1" connectable="0">
          <mxGeometry x="-0.6" y="1" relative="1" as="geometry">
            <mxPoint x="51" y="-10" as="offset" />
          </mxGeometry>
        </mxCell>
        <mxCell id="ZjVOlIGF_ecNaLtHyKa2-11" value="&lt;div&gt;-A PREROUTING&amp;nbsp;&lt;/div&gt;-m physdev --physdev-in &lt;b&gt;&lt;i&gt;veth_rd_rx&lt;/i&gt;&lt;/b&gt;&lt;span&gt;&amp;nbsp;-p tcp -m tcp --dport 80 -j DNAT --to-destination 10.17.127.206:20080&lt;/span&gt;&lt;b&gt;&lt;i&gt;&lt;br&gt;&lt;/i&gt;&lt;/b&gt;&lt;div&gt;-A PREROUTING&amp;nbsp;&lt;/div&gt;-m physdev --physdev-in&amp;nbsp;&lt;b&gt;&lt;i&gt;veth_rd_rx&lt;/i&gt;&lt;/b&gt;&lt;span&gt;&amp;nbsp;&lt;/span&gt;&lt;span&gt;-p tcp -m tcp --dport 443 -j DNAT --to-destination 10.17.127.206:20443&lt;/span&gt;&lt;span&gt;&lt;br&gt;&lt;/span&gt;&lt;div&gt;-A POSTROUTING -d 10.17.127.206/32 -o enp6s0 -p tcp -m multiport --dports 20080,20443 -j MASQUERADE&lt;/div&gt;" style="rounded=1;whiteSpace=wrap;html=1;dashed=1;fillColor=#fff2cc;strokeColor=#d6b656;" parent="1" vertex="1">
          <mxGeometry x="110" y="-70" width="620" height="80" as="geometry" />
        </mxCell>
        <mxCell id="ZjVOlIGF_ecNaLtHyKa2-13" value="&lt;b&gt;&lt;i&gt;iptables&lt;/i&gt;&lt;/b&gt;" style="text;html=1;align=center;verticalAlign=middle;resizable=0;points=[];autosize=1;" parent="1" vertex="1">
          <mxGeometry x="110" y="-90" width="60" height="20" as="geometry" />
        </mxCell>
        <mxCell id="ZjVOlIGF_ecNaLtHyKa2-15" value="eth0" style="rounded=1;whiteSpace=wrap;html=1;fillColor=#e1d5e7;strokeColor=#9673a6;" parent="1" vertex="1">
          <mxGeometry x="560" y="110" width="120" height="60" as="geometry" />
        </mxCell>
        <mxCell id="ZjVOlIGF_ecNaLtHyKa2-16" value="" style="endArrow=classic;html=1;entryX=0.5;entryY=0;entryDx=0;entryDy=0;fillColor=#fff2cc;strokeColor=#d6b656;exitX=0.82;exitY=1;exitDx=0;exitDy=0;exitPerimeter=0;" parent="1" target="ZjVOlIGF_ecNaLtHyKa2-15" edge="1" source="ZjVOlIGF_ecNaLtHyKa2-11">
          <mxGeometry width="50" height="50" relative="1" as="geometry">
            <mxPoint x="670" y="10" as="sourcePoint" />
            <mxPoint x="540" y="120" as="targetPoint" />
          </mxGeometry>
        </mxCell>
        <mxCell id="ZjVOlIGF_ecNaLtHyKa2-17" value="" style="endArrow=classic;html=1;exitX=1;exitY=0.5;exitDx=0;exitDy=0;fillColor=#fff2cc;strokeColor=#d6b656;" parent="1" source="ZjVOlIGF_ecNaLtHyKa2-15" edge="1">
          <mxGeometry width="50" height="50" relative="1" as="geometry">
            <mxPoint x="440" y="130" as="sourcePoint" />
            <mxPoint x="730" y="140" as="targetPoint" />
          </mxGeometry>
        </mxCell>
        <mxCell id="ZjVOlIGF_ecNaLtHyKa2-18" value="veth_rd_rx" style="rounded=1;whiteSpace=wrap;html=1;fillColor=#fff2cc;strokeColor=#d6b656;shadow=1;" parent="1" vertex="1">
          <mxGeometry x="330" y="30" width="120" height="60" as="geometry" />
        </mxCell>
        <mxCell id="ZjVOlIGF_ecNaLtHyKa2-19" value="&lt;span&gt;enp132s0f1&lt;/span&gt;" style="rounded=1;whiteSpace=wrap;html=1;fillColor=#ffe6cc;strokeColor=#d79b00;" parent="1" vertex="1">
          <mxGeometry x="560" y="180" width="120" height="60" as="geometry" />
        </mxCell>
        <mxCell id="ZjVOlIGF_ecNaLtHyKa2-20" value="" style="endArrow=classic;html=1;exitX=0.5;exitY=0;exitDx=0;exitDy=0;entryX=0.5;entryY=1;entryDx=0;entryDy=0;fillColor=#fff2cc;strokeColor=#d6b656;" parent="1" source="ZjVOlIGF_ecNaLtHyKa2-3" target="ZjVOlIGF_ecNaLtHyKa2-18" edge="1">
          <mxGeometry width="50" height="50" relative="1" as="geometry">
            <mxPoint x="450" y="90" as="sourcePoint" />
            <mxPoint x="500" y="40" as="targetPoint" />
          </mxGeometry>
        </mxCell>
        <mxCell id="dnEq5zq9akTZxnh5Uyjw-7" value="" style="endArrow=classic;html=1;exitX=1;exitY=0.5;exitDx=0;exitDy=0;strokeColor=#7EA6E0;" parent="1" edge="1">
          <mxGeometry width="50" height="50" relative="1" as="geometry">
            <mxPoint x="680" y="279.65999999999997" as="sourcePoint" />
            <mxPoint x="730" y="279.65999999999997" as="targetPoint" />
          </mxGeometry>
        </mxCell>
        <mxCell id="GeMk-iVtAzneay0xfEbk-1" value="veth_mi_rx" style="rounded=1;whiteSpace=wrap;html=1;fillColor=#d5e8d4;strokeColor=#82b366;" vertex="1" parent="1">
          <mxGeometry x="330" y="350" width="120" height="60" as="geometry" />
        </mxCell>
        <mxCell id="GeMk-iVtAzneay0xfEbk-2" value="" style="endArrow=classic;html=1;exitX=0.461;exitY=-0.011;exitDx=0;exitDy=0;fillColor=#fff2cc;strokeColor=#d6b656;exitPerimeter=0;" edge="1" parent="1" source="ZjVOlIGF_ecNaLtHyKa2-18">
          <mxGeometry width="50" height="50" relative="1" as="geometry">
            <mxPoint x="400" y="120" as="sourcePoint" />
            <mxPoint x="386" y="10" as="targetPoint" />
          </mxGeometry>
        </mxCell>
        <mxCell id="GeMk-iVtAzneay0xfEbk-3" value="" style="endArrow=classic;html=1;entryX=0;entryY=0.5;entryDx=0;entryDy=0;" edge="1" parent="1" target="ZjVOlIGF_ecNaLtHyKa2-19">
          <mxGeometry width="50" height="50" relative="1" as="geometry">
            <mxPoint x="260" y="210" as="sourcePoint" />
            <mxPoint x="430" y="240" as="targetPoint" />
          </mxGeometry>
        </mxCell>
        <mxCell id="GeMk-iVtAzneay0xfEbk-5" value="FORWARD" style="edgeLabel;html=1;align=center;verticalAlign=middle;resizable=0;points=[];" vertex="1" connectable="0" parent="GeMk-iVtAzneay0xfEbk-3">
          <mxGeometry x="-0.1404" relative="1" as="geometry">
            <mxPoint as="offset" />
          </mxGeometry>
        </mxCell>
        <mxCell id="GeMk-iVtAzneay0xfEbk-4" value="detect" style="rounded=1;whiteSpace=wrap;html=1;fillColor=#e1d5e7;strokeColor=#9673a6;" vertex="1" parent="1">
          <mxGeometry x="560" y="250" width="120" height="60" as="geometry" />
        </mxCell>
        <mxCell id="GeMk-iVtAzneay0xfEbk-6" value="" style="endArrow=classic;html=1;exitX=0.5;exitY=1;exitDx=0;exitDy=0;strokeColor=#7EA6E0;" edge="1" parent="1" source="ZjVOlIGF_ecNaLtHyKa2-1" target="GeMk-iVtAzneay0xfEbk-1">
          <mxGeometry width="50" height="50" relative="1" as="geometry">
            <mxPoint x="420" y="340.0000000000001" as="sourcePoint" />
            <mxPoint x="470" y="340.0000000000001" as="targetPoint" />
          </mxGeometry>
        </mxCell>
        <mxCell id="GeMk-iVtAzneay0xfEbk-11" value="enp132s0f0" style="rounded=1;whiteSpace=wrap;html=1;fillColor=#dae8fc;strokeColor=#6c8ebf;" vertex="1" parent="1">
          <mxGeometry x="30" y="180" width="120" height="60" as="geometry" />
        </mxCell>
        <mxCell id="GeMk-iVtAzneay0xfEbk-13" value="" style="endArrow=classic;html=1;exitX=1;exitY=0.5;exitDx=0;exitDy=0;" edge="1" parent="1">
          <mxGeometry width="50" height="50" relative="1" as="geometry">
            <mxPoint x="-20" y="209.66" as="sourcePoint" />
            <mxPoint x="30" y="209.66" as="targetPoint" />
          </mxGeometry>
        </mxCell>
        <mxCell id="GeMk-iVtAzneay0xfEbk-14" value="" style="endArrow=classic;html=1;exitX=1;exitY=0.5;exitDx=0;exitDy=0;entryX=0;entryY=0.5;entryDx=0;entryDy=0;" edge="1" parent="1" target="GeMk-iVtAzneay0xfEbk-15">
          <mxGeometry width="50" height="50" relative="1" as="geometry">
            <mxPoint x="150" y="209.66000000000008" as="sourcePoint" />
            <mxPoint x="180" y="210" as="targetPoint" />
          </mxGeometry>
        </mxCell>
        <mxCell id="GeMk-iVtAzneay0xfEbk-15" value="eBPF" style="shape=process;whiteSpace=wrap;html=1;backgroundOutline=1;fillColor=#f5f5f5;strokeColor=#666666;fontColor=#333333;" vertex="1" parent="1">
          <mxGeometry x="190" y="195" width="70" height="30" as="geometry" />
        </mxCell>
        <mxCell id="GeMk-iVtAzneay0xfEbk-16" value="eBPF" style="shape=process;whiteSpace=wrap;html=1;backgroundOutline=1;fillColor=#f5f5f5;strokeColor=#666666;fontColor=#333333;" vertex="1" parent="1">
          <mxGeometry x="470" y="365" width="70" height="30" as="geometry" />
        </mxCell>
        <mxCell id="GeMk-iVtAzneay0xfEbk-17" value="" style="endArrow=classic;html=1;exitX=1;exitY=0.5;exitDx=0;exitDy=0;strokeColor=#7EA6E0;entryX=0;entryY=0.5;entryDx=0;entryDy=0;" edge="1" parent="1" source="GeMk-iVtAzneay0xfEbk-1" target="GeMk-iVtAzneay0xfEbk-16">
          <mxGeometry width="50" height="50" relative="1" as="geometry">
            <mxPoint x="400" y="340" as="sourcePoint" />
            <mxPoint x="400" y="360" as="targetPoint" />
          </mxGeometry>
        </mxCell>
        <mxCell id="GeMk-iVtAzneay0xfEbk-18" value="" style="endArrow=classic;html=1;exitX=0.5;exitY=0;exitDx=0;exitDy=0;strokeColor=#7EA6E0;entryX=0;entryY=0.5;entryDx=0;entryDy=0;" edge="1" parent="1" source="GeMk-iVtAzneay0xfEbk-16" target="GeMk-iVtAzneay0xfEbk-4">
          <mxGeometry width="50" height="50" relative="1" as="geometry">
            <mxPoint x="460" y="390" as="sourcePoint" />
            <mxPoint x="480" y="390" as="targetPoint" />
            <Array as="points">
              <mxPoint x="505" y="280" />
            </Array>
          </mxGeometry>
        </mxCell>
        <mxCell id="GeMk-iVtAzneay0xfEbk-19" value="" style="endArrow=classic;html=1;exitX=0.384;exitY=0.03;exitDx=0;exitDy=0;exitPerimeter=0;strokeColor=none;" edge="1" parent="1" source="GeMk-iVtAzneay0xfEbk-16">
          <mxGeometry width="50" height="50" relative="1" as="geometry">
            <mxPoint x="380" y="300" as="sourcePoint" />
            <mxPoint x="497" y="210" as="targetPoint" />
          </mxGeometry>
        </mxCell>
        <mxCell id="GeMk-iVtAzneay0xfEbk-21" value="" style="endArrow=classic;html=1;exitX=0.5;exitY=0;exitDx=0;exitDy=0;strokeColor=#7EA6E0;entryX=0;entryY=0.667;entryDx=0;entryDy=0;entryPerimeter=0;" edge="1" parent="1" target="ZjVOlIGF_ecNaLtHyKa2-19">
          <mxGeometry width="50" height="50" relative="1" as="geometry">
            <mxPoint x="500" y="365" as="sourcePoint" />
            <mxPoint x="555" y="280" as="targetPoint" />
            <Array as="points">
              <mxPoint x="500" y="220" />
            </Array>
          </mxGeometry>
        </mxCell>
      </root>
    </mxGraphModel>
  </diagram>
</mxfile>
